<svg width="40" height="41" viewBox="0 0 40 41" fill="none" xmlns="http://www.w3.org/2000/svg">
<path d="M20 3.83331C15.4999 3.92093 11.2182 5.78961 8.09379 9.02957C4.96944 12.2695 3.25748 16.6163 3.33335 21.1166V28.8333C3.33335 30.1519 3.72434 31.4408 4.45689 32.5371C5.18943 33.6334 6.23062 34.4879 7.4488 34.9925C8.66697 35.4971 10.0074 35.6291 11.3006 35.3719C12.5938 35.1146 13.7817 34.4797 14.7141 33.5474C15.6464 32.615 16.2814 31.4271 16.5386 30.1339C16.7958 28.8407 16.6638 27.5003 16.1592 26.2821C15.6546 25.0639 14.8001 24.0227 13.7038 23.2902C12.6075 22.5576 11.3186 22.1666 10 22.1666C8.82508 22.1716 7.67334 22.4941 6.66668 23.1V21.1166C6.59064 17.5003 7.95136 14.0012 10.4506 11.3864C12.9499 8.77149 16.3839 7.25407 20 7.16665C23.6161 7.25407 27.0501 8.77149 29.5494 11.3864C32.0487 14.0012 33.4094 17.5003 33.3334 21.1166V23.1C32.3267 22.4941 31.175 22.1716 30 22.1666C28.6815 22.1666 27.3925 22.5576 26.2962 23.2902C25.1999 24.0227 24.3454 25.0639 23.8408 26.2821C23.3362 27.5003 23.2042 28.8407 23.4614 30.1339C23.7187 31.4271 24.3536 32.615 25.286 33.5474C26.2183 34.4797 27.4062 35.1146 28.6994 35.3719C29.9926 35.6291 31.3331 35.4971 32.5512 34.9925C33.7694 34.4879 34.8106 33.6334 35.5432 32.5371C36.2757 31.4408 36.6667 30.1519 36.6667 28.8333V21.1166C36.7426 16.6163 35.0306 12.2695 31.9062 9.02957C28.7819 5.78961 24.5002 3.92093 20 3.83331Z" fill="#D54040"/>
</svg>
