<svg width="50" height="50" viewBox="0 0 50 50" fill="none" xmlns="http://www.w3.org/2000/svg">
<g clip-path="url(#clip0_18_49)">
<path d="M31.2695 23.8086L26.416 33.5156C25.8301 34.6973 24.1308 34.6582 23.5937 33.457L18.0371 21.123L15.1074 28.125H5.91795L23.7402 46.3379C24.4336 47.0508 25.5566 47.0508 26.25 46.3379L44.082 28.125H33.4277L31.2695 23.8086ZM46.2598 7.2168L46.0254 6.97266C40.9961 1.83594 32.7637 1.83594 27.7246 6.97266L25 9.76562L22.2754 6.98242C17.2461 1.83594 9.00389 1.83594 3.9746 6.98242L3.74022 7.2168C-1.01564 12.0801 -1.22072 19.8242 3.02733 25H13.0273L16.5332 16.582C17.0605 15.3223 18.8379 15.293 19.4043 16.543L25.0879 29.1699L29.873 19.6094C30.4492 18.457 32.0898 18.457 32.666 19.6094L35.3613 25H46.9726C51.2207 19.8242 51.0156 12.0801 46.2598 7.2168Z" fill="#D54040"/>
</g>
<defs>
<clipPath id="clip0_18_49">
<rect width="50" height="50" fill="white"/>
</clipPath>
</defs>
</svg>
