<svg width="111" height="101" viewBox="0 0 111 101" fill="none" xmlns="http://www.w3.org/2000/svg">
<path d="M91.8162 3.03748V47.3205L55.5002 74.6421L19.1841 47.3205V3.03748H91.8162Z" fill="#3FA5E4"/>
<path d="M107.63 54.8448C105.787 54.8448 104.292 56.2049 104.292 57.8823V90.6493L71.8776 66.2625L93.9434 49.6616C93.9458 49.6598 93.9477 49.6581 93.9501 49.6561L109.757 37.7639C110.524 37.1867 110.968 36.3284 110.968 35.423V24.9981C110.968 23.3207 109.473 21.9606 107.629 21.9606H95.1544V3.0375C95.1544 1.36015 93.6598 0 91.8162 0H19.184C17.3404 0 15.8458 1.36015 15.8458 3.0375V21.9608H3.37106C1.52742 21.9608 0.0328223 23.3209 0.0328223 24.9983V25.8424C0.0328223 25.8485 0.0317383 25.8542 0.0317383 25.8599V97.102V97.1328V97.9627C0.0317383 99.6399 1.52634 101 3.36998 101H107.63C109.474 101 110.968 99.6399 110.968 97.9625V97.102V57.8823C110.968 56.2047 109.474 54.8448 107.63 54.8448ZM104.291 28.0356V33.993L95.1544 40.8671V28.0358L104.291 28.0356ZM22.5222 6.07499H88.4781V45.8901L55.5001 70.7012L22.5222 45.8901V6.07499ZM6.70821 41.875L17.0503 49.6557C17.0527 49.6575 17.0546 49.6593 17.057 49.6612L39.1228 66.2621L6.70821 90.6487V41.875ZM6.70908 28.0356H15.8458V40.8669L6.70908 33.9928C6.70908 33.993 6.70908 28.0356 6.70908 28.0356ZM11.5022 94.925L44.3613 70.2035L53.3727 76.9831C53.9899 77.4473 54.7445 77.6797 55.4996 77.6797C56.2548 77.6797 57.0094 77.4473 57.6266 76.9831L66.638 70.2035L99.4971 94.925H11.5022Z" fill="#1DA1F2"/>
</svg>
