<svg width="111" height="106" viewBox="0 0 111 106" fill="none" xmlns="http://www.w3.org/2000/svg">
<path d="M101.481 79.3037C103.402 79.3037 105.236 78.4225 106.633 77.2769L67.945 45.642C67.7703 45.4657 67.7703 45.2014 67.8577 45.0251C67.945 44.8489 68.2943 44.7608 68.469 44.937L107.245 76.572C108.729 75.0739 109.603 72.9591 109.603 70.6679V11.1872C109.603 8.89611 108.729 6.86936 107.245 5.2832L55.8057 47.3162C55.7184 47.4044 55.6311 47.4044 55.5437 47.4044C55.4564 47.4044 55.3691 47.4044 55.2817 47.3162L3.75538 5.2832C2.27072 6.78124 1.31006 8.89611 1.31006 11.1872V70.6679C1.31006 72.9591 2.27072 74.9858 3.75538 76.572L42.5311 44.937C42.7058 44.7608 42.9678 44.8489 43.1425 45.0251C43.3171 45.2014 43.2298 45.4657 43.0551 45.642L4.36671 77.365C5.76403 78.5106 7.59802 79.3918 9.51934 79.3918H101.481V79.3037Z" fill="#1DA1F2" stroke="#113446" stroke-width="1.57356"/>
<path d="M101.481 2.63965H9.60674C7.68542 2.63965 5.85143 3.52084 4.4541 4.6664V4.75452L55.5438 46.5232L106.633 4.84264V4.6664C105.236 3.43272 103.49 2.63965 101.481 2.63965Z" fill="#1DA1F2" stroke="#113446" stroke-width="1.57356"/>
<path d="M101.481 2.63965H94.3196L55.5438 34.6271L16.9427 2.63965H9.60674C7.68542 2.63965 5.85143 3.52084 4.4541 4.6664V4.75452L55.5438 46.5232L106.633 4.84264V4.6664C105.236 3.43272 103.49 2.63965 101.481 2.63965Z" fill="#66C4FF" stroke="#113446" stroke-width="1.57356"/>
<path d="M55.631 103.36C68.7503 103.36 79.3855 92.6293 79.3855 79.3919C79.3855 66.1544 68.7503 55.4233 55.631 55.4233C42.5117 55.4233 31.8765 66.1544 31.8765 79.3919C31.8765 92.6293 42.5117 103.36 55.631 103.36Z" fill="#45ED64" stroke="#113446" stroke-width="1.57356"/>
<path d="M101.481 80.6255H79.9968C79.4729 80.6255 79.1235 80.273 79.1235 79.7443C79.1235 79.2156 79.4729 78.8631 79.9968 78.8631H101.481C105.673 78.8631 109.253 75.1621 109.253 70.668V11.1872C109.253 6.78127 105.673 2.99213 101.481 2.99213H9.60661C5.3273 2.99213 1.74666 6.69315 1.74666 11.1872V70.668C1.74666 75.0739 5.3273 78.8631 9.60661 78.8631H31.0031C31.5271 78.8631 31.8765 79.2156 31.8765 79.7443C31.8765 80.273 31.5271 80.6255 31.0031 80.6255H9.60661C4.45397 80.6255 0 76.0433 0 70.668V11.1872C0 5.81195 4.36664 1.22974 9.60661 1.22974H101.481C106.633 1.22974 111 5.81195 111 11.1872V70.668C111 76.0433 106.633 80.6255 101.481 80.6255Z" fill="#113446" stroke="#113446" stroke-width="1.57356"/>
<path d="M3.84245 77.982C3.58045 77.982 3.31845 77.8939 3.14379 77.6295C2.88179 77.277 2.88179 76.6602 3.23112 76.3958L42.2689 44.4965C42.6182 44.2322 43.2295 44.2322 43.4915 44.5847C43.7535 44.9371 43.7535 45.554 43.4042 45.8183L4.36645 77.7176C4.19178 77.982 4.01712 77.982 3.84245 77.982Z" fill="#113446" stroke="#113446" stroke-width="1.57356"/>
<path d="M106.983 77.6294C106.808 77.6294 106.633 77.5412 106.459 77.4531L67.7704 45.9944C67.421 45.7301 67.3337 45.1132 67.5957 44.7608C67.8577 44.4083 68.469 44.3202 68.8184 44.6726L107.507 76.1313C107.856 76.3957 107.943 77.0125 107.681 77.365C107.419 77.4531 107.245 77.6294 106.983 77.6294Z" fill="#113446" stroke="#113446" stroke-width="1.57356"/>
<path d="M55.5435 47.9332C55.3688 47.9332 55.1941 47.845 55.0195 47.7569L3.2311 5.45951C2.88177 5.19515 2.79444 4.57832 3.14377 4.22584C3.40577 3.87336 4.0171 3.78524 4.36643 4.13772L55.5435 45.9945L106.72 4.13772C107.07 3.87336 107.681 3.87336 107.943 4.22584C108.205 4.57832 108.205 5.19515 107.856 5.45951L56.0675 47.7569C55.9801 47.9332 55.8055 47.9332 55.5435 47.9332Z" fill="#113446" stroke="#113446" stroke-width="1.57356"/>
<path d="M55.5438 35.8606C55.3691 35.8606 55.1944 35.7725 55.0198 35.6844L15.2833 3.25639C14.934 2.99203 14.8467 2.37519 15.196 2.02271C15.458 1.67023 16.0693 1.58211 16.4187 1.93459L55.6311 33.922L60.4344 30.0447C60.7837 29.7804 61.3951 29.7804 61.6571 30.1329C61.9191 30.4853 61.9191 31.1022 61.5697 31.3665L56.2424 35.6844C55.9804 35.7725 55.8058 35.8606 55.5438 35.8606Z" fill="#113446" stroke="#113446" stroke-width="1.57356"/>
<path d="M67.6828 25.9914C67.4208 25.9914 67.1588 25.9033 66.9841 25.6389C66.7221 25.2865 66.7221 24.6696 67.0715 24.4053L94.756 1.84664C95.1053 1.58228 95.7166 1.58228 95.9786 1.93476C96.2406 2.28724 96.2406 2.90408 95.8913 3.16844L68.2068 25.7271C68.0321 25.9033 67.8574 25.9914 67.6828 25.9914Z" fill="#113446" stroke="#113446" stroke-width="1.57356"/>
<path d="M55.5435 104.77C41.7449 104.77 30.479 93.4029 30.479 79.48C30.479 65.5571 41.7449 54.1897 55.5435 54.1897C60.3468 54.1897 65.0628 55.5996 69.0801 58.2432C69.5168 58.5076 69.6041 59.0363 69.3421 59.4769C69.0801 59.9175 68.5561 60.0056 68.1194 59.7412C64.3641 57.2739 59.9975 56.0402 55.5435 56.0402C42.7056 56.0402 32.2257 66.6146 32.2257 79.5681C32.2257 92.5217 42.7056 103.096 55.5435 103.096C68.3814 103.096 78.8614 92.5217 78.8614 79.5681C78.8614 74.4572 77.2894 69.6106 74.2327 65.5571C73.9707 65.2046 74.0581 64.5878 74.4074 64.3235C74.7567 64.0591 75.3681 64.1472 75.6301 64.4997C78.8614 68.9057 80.608 74.1047 80.608 79.5681C80.6954 93.4029 69.4294 104.77 55.5435 104.77Z" fill="#113446" stroke="#113446" stroke-width="1.57356"/>
<path d="M53.6225 87.2344C53.3605 87.2344 53.1858 87.1463 53.0112 86.9701L45.2386 79.1274C44.8892 78.7749 44.8892 78.2462 45.2386 77.8938C45.5879 77.5413 46.1119 77.5413 46.4612 77.8938L54.2338 85.7364C54.5832 86.0889 54.5832 86.6176 54.2338 86.9701C54.0592 87.1463 53.8845 87.2344 53.6225 87.2344Z" fill="#113446" stroke="#113446" stroke-width="1.57356"/>
<path d="M53.6224 87.2344C53.3604 87.2344 53.1857 87.1463 53.011 86.97C52.6617 86.6175 52.6617 86.0888 53.011 85.7363L65.325 73.3115C65.6743 72.959 66.1983 72.959 66.5476 73.3115C66.8969 73.664 66.8969 74.1927 66.5476 74.5452L54.2337 86.97C54.059 87.1463 53.8844 87.2344 53.6224 87.2344Z" fill="#113446" stroke="#113446" stroke-width="1.57356"/>
</svg>
